<svg width="111" height="24" viewBox="0 0 111 24" fill="none" xmlns="http://www.w3.org/2000/svg">
<path d="M3.68 18.26H9.06V20H1.06V18.9L6.52 7.84V7.74H1.48V6H9V7.1L3.68 18.16V18.26ZM14.3903 18.72C15.4703 18.72 16.1036 18.1667 16.2903 17.06H18.0903C17.9436 18.0867 17.537 18.8667 16.8703 19.4C16.217 19.9333 15.397 20.2 14.4103 20.2C13.1703 20.2 12.197 19.7733 11.4903 18.92C10.7836 18.0533 10.4303 16.7867 10.4303 15.12C10.4303 13.3733 10.7903 12.0533 11.5103 11.16C12.2436 10.2533 13.197 9.8 14.3703 9.8C15.4636 9.8 16.357 10.2067 17.0503 11.02C17.757 11.82 18.1103 13.0733 18.1103 14.78C18.1103 14.8867 18.097 15.1133 18.0703 15.46H12.2503C12.2903 17.6333 13.0036 18.72 14.3903 18.72ZM14.3703 11.28C13.7836 11.28 13.297 11.5267 12.9103 12.02C12.5236 12.5133 12.3036 13.2067 12.2503 14.1H16.3303C16.317 13.1667 16.1303 12.4667 15.7703 12C15.4103 11.52 14.9436 11.28 14.3703 11.28ZM19.9486 20V10H21.6286L21.8086 11H21.9286C22.5286 10.2 23.3219 9.8 24.3086 9.8C25.1886 9.8 25.8953 10.0933 26.4286 10.68C26.9619 11.2667 27.2286 12.0733 27.2286 13.1V20H25.3686V13.48C25.3686 12.8133 25.2086 12.3067 24.8886 11.96C24.5819 11.6 24.1819 11.42 23.6886 11.42C23.1553 11.42 22.7086 11.6133 22.3486 12C21.9886 12.3733 21.8086 12.9267 21.8086 13.66V20H19.9486ZM31.1422 8.1C30.9155 8.32667 30.6355 8.44 30.3022 8.44C29.9689 8.44 29.6822 8.32667 29.4422 8.1C29.2022 7.86 29.0822 7.57333 29.0822 7.24C29.0822 6.90667 29.2022 6.62667 29.4422 6.4C29.6822 6.16 29.9689 6.04 30.3022 6.04C30.6355 6.04 30.9155 6.16 31.1422 6.4C31.3822 6.62667 31.5022 6.90667 31.5022 7.24C31.5022 7.57333 31.3822 7.86 31.1422 8.1ZM29.3822 20V10H31.2422V20H29.3822ZM36.9656 20.2C36.139 20.2 35.519 19.9933 35.1056 19.58C34.6923 19.1533 34.4856 18.5733 34.4856 17.84V11.5H32.5856V10H33.3456C33.8123 10 34.1456 9.9 34.3456 9.7C34.559 9.5 34.6656 9.16 34.6656 8.68V7.4H36.3256V10H38.6256V11.5H36.3256V17.52C36.3256 18.2933 36.719 18.68 37.5056 18.68C37.7323 18.68 38.0323 18.64 38.4056 18.56V19.98C37.939 20.1267 37.459 20.2 36.9656 20.2ZM44.4453 9.8C45.3253 9.8 46.032 10.0933 46.5653 10.68C47.0986 11.2667 47.3653 12.0733 47.3653 13.1V20H45.5053V13.48C45.5053 12.8133 45.3453 12.3067 45.0253 11.96C44.7186 11.6 44.3186 11.42 43.8253 11.42C43.292 11.42 42.8453 11.6133 42.4853 12C42.1253 12.3733 41.9453 12.9267 41.9453 13.66V20H40.0853V5.8H41.9453V11H42.0653C42.6653 10.2 43.4586 9.8 44.4453 9.8ZM62.9267 16.54C62.9267 17.7667 62.5601 18.6867 61.8267 19.3C61.1067 19.9 60.1801 20.2 59.0467 20.2C57.7667 20.2 56.7734 19.84 56.0667 19.12C55.3601 18.4 54.9867 17.3467 54.9467 15.96H56.8467C56.9401 17.68 57.6667 18.54 59.0267 18.54C59.6001 18.54 60.0667 18.3867 60.4267 18.08C60.8001 17.76 60.9867 17.2733 60.9867 16.62C60.9867 16.0333 60.8001 15.52 60.4267 15.08C60.0534 14.6267 59.5134 14.2 58.8067 13.8L57.9267 13.28C57.5534 13.0667 57.2334 12.8733 56.9667 12.7C56.7134 12.5133 56.4401 12.2733 56.1467 11.98C55.8534 11.6733 55.6334 11.3133 55.4867 10.9C55.3401 10.4733 55.2667 10.0067 55.2667 9.5C55.2667 8.34 55.6267 7.43333 56.3467 6.78C57.0667 6.12667 57.9867 5.8 59.1067 5.8C60.2534 5.8 61.1667 6.15333 61.8467 6.86C62.5267 7.56667 62.8801 8.54 62.9067 9.78H61.0467C60.9134 8.23333 60.2601 7.46 59.0867 7.46C58.5267 7.46 58.0734 7.64 57.7267 8C57.3801 8.34667 57.2067 8.80667 57.2067 9.38C57.2067 9.82 57.3267 10.22 57.5667 10.58C57.8067 10.9267 58.0467 11.1867 58.2867 11.36C58.5267 11.52 58.8667 11.7133 59.3067 11.94L60.0867 12.38C60.4467 12.58 60.7401 12.76 60.9667 12.92C61.1934 13.0667 61.4801 13.3067 61.8267 13.64C62.1867 13.9733 62.4601 14.3867 62.6467 14.88C62.8334 15.3733 62.9267 15.9267 62.9267 16.54ZM68.3914 20.2C67.5647 20.2 66.9447 19.9933 66.5314 19.58C66.1181 19.1533 65.9114 18.5733 65.9114 17.84V11.5H64.0114V10H64.7714C65.2381 10 65.5714 9.9 65.7714 9.7C65.9847 9.5 66.0914 9.16 66.0914 8.68V7.4H67.7514V10H70.0514V11.5H67.7514V17.52C67.7514 18.2933 68.1447 18.68 68.9314 18.68C69.1581 18.68 69.4581 18.64 69.8314 18.56V19.98C69.3647 20.1267 68.8847 20.2 68.3914 20.2ZM78.752 10V20H77.072L76.912 19H76.772C76.1987 19.8 75.412 20.2 74.412 20.2C73.5187 20.2 72.8054 19.9067 72.272 19.32C71.7387 18.7333 71.472 17.9267 71.472 16.9V10H73.332V16.52C73.332 17.1867 73.4854 17.7 73.792 18.06C74.112 18.4067 74.5187 18.58 75.012 18.58C75.5454 18.58 75.992 18.3933 76.352 18.02C76.7254 17.6333 76.912 17.0733 76.912 16.34V10H78.752ZM86.627 5.8H88.487V20H86.967L86.807 18.9H86.667C86.0937 19.7667 85.2737 20.2 84.207 20.2C83.1004 20.2 82.2137 19.7533 81.547 18.86C80.8937 17.9667 80.567 16.68 80.567 15C80.567 13.2933 80.9004 12 81.567 11.12C82.247 10.24 83.127 9.8 84.207 9.8C85.287 9.8 86.0937 10.1933 86.627 10.98V5.8ZM84.527 18.58C85.1804 18.58 85.6937 18.2867 86.067 17.7C86.4404 17.1 86.627 16.2 86.627 15C86.627 13.8 86.4404 12.9067 86.067 12.32C85.6937 11.72 85.1804 11.42 84.527 11.42C83.887 11.42 83.3737 11.72 82.987 12.32C82.6137 12.92 82.427 13.8133 82.427 15C82.427 16.1867 82.6137 17.08 82.987 17.68C83.3737 18.28 83.887 18.58 84.527 18.58ZM92.3922 8.1C92.1655 8.32667 91.8855 8.44 91.5522 8.44C91.2189 8.44 90.9322 8.32667 90.6922 8.1C90.4522 7.86 90.3322 7.57333 90.3322 7.24C90.3322 6.90667 90.4522 6.62667 90.6922 6.4C90.9322 6.16 91.2189 6.04 91.5522 6.04C91.8855 6.04 92.1655 6.16 92.3922 6.4C92.6322 6.62667 92.7522 6.90667 92.7522 7.24C92.7522 7.57333 92.6322 7.86 92.3922 8.1ZM90.6322 20V10H92.4922V20H90.6322ZM101.338 18.82C100.591 19.74 99.6042 20.2 98.3775 20.2C97.1508 20.2 96.1642 19.74 95.4175 18.82C94.6708 17.8867 94.2975 16.6133 94.2975 15C94.2975 13.4 94.6708 12.1333 95.4175 11.2C96.1642 10.2667 97.1508 9.8 98.3775 9.8C99.5908 9.8 100.571 10.2733 101.318 11.22C102.078 12.1533 102.458 13.4133 102.458 15C102.458 16.6267 102.084 17.9 101.338 18.82ZM98.3775 18.58C99.0708 18.58 99.6175 18.26 100.018 17.62C100.418 16.9667 100.618 16.0933 100.618 15C100.618 13.9067 100.418 13.04 100.018 12.4C99.6175 11.7467 99.0708 11.42 98.3775 11.42C97.6708 11.42 97.1175 11.74 96.7175 12.38C96.3308 13.02 96.1375 13.8933 96.1375 15C96.1375 16.1067 96.3308 16.98 96.7175 17.62C97.1175 18.26 97.6708 18.58 98.3775 18.58Z" fill="white"/>
<g clip-path="url(#clip0_38_297)">
<path d="M104.875 8.5C104.875 8.84472 104.943 9.18606 105.075 9.50454C105.207 9.82302 105.4 10.1124 105.644 10.3562C105.888 10.5999 106.177 10.7933 106.495 10.9252C106.814 11.0571 107.155 11.125 107.5 11.125C107.845 11.125 108.186 11.0571 108.505 10.9252C108.823 10.7933 109.112 10.5999 109.356 10.3562C109.6 10.1124 109.793 9.82302 109.925 9.50454C110.057 9.18606 110.125 8.84472 110.125 8.5C110.125 8.15528 110.057 7.81394 109.925 7.49546C109.793 7.17698 109.6 6.8876 109.356 6.64384C109.112 6.40009 108.823 6.20673 108.505 6.07482C108.186 5.9429 107.845 5.875 107.5 5.875C107.155 5.875 106.814 5.9429 106.495 6.07482C106.177 6.20673 105.888 6.40009 105.644 6.64384C105.4 6.8876 105.207 7.17698 105.075 7.49546C104.943 7.81394 104.875 8.15528 104.875 8.5Z" stroke="white" stroke-width="0.25" stroke-linecap="round" stroke-linejoin="round"/>
<path d="M108.083 7.84375C107.913 7.69434 107.692 7.61621 107.466 7.62561C107.24 7.635 107.026 7.73121 106.869 7.89421C106.712 8.0569 106.625 8.27405 106.625 8.5C106.625 8.72595 106.712 8.9431 106.869 9.10579C107.026 9.2688 107.24 9.365 107.466 9.3744C107.692 9.38379 107.913 9.30566 108.083 9.15625" stroke="white" stroke-width="0.25" stroke-linecap="round" stroke-linejoin="round"/>
</g>
<defs>
<clipPath id="clip0_38_297">
<rect width="7" height="7" fill="white" transform="translate(104 5)"/>
</clipPath>
</defs>
</svg>
